<?xml version="1.0" encoding="utf-8"?>
<!-- Generator: Adobe Illustrator 24.0.1, SVG Export Plug-In . SVG Version: 6.00 Build 0)  -->
<svg version="1.1" id="Layer_1" xmlns="http://www.w3.org/2000/svg" xmlns:xlink="http://www.w3.org/1999/xlink" x="0px" y="0px"
	 viewBox="0 0 728.6 396.5" style="enable-background:new 0 0 728.6 396.5;" xml:space="preserve">
<style type="text/css">
	.hero-img-mask{fill:#231F20;}
</style>
<g>
	<polygon points="0,396.5 109,396.5 0,0 	"/>
	<path d="M315.9,395.5l-5.3-24.2l-55.3-214c-2.5,14.4-5.8,32.8-9.1,48.5l-40.9,190.7h111.9l-0.3-1H315.9z"/>
	<path d="M157.1,263.8h1.1c0,0,10.5-54.2,19.4-94L214.7,0H99l39.8,165.9C147.7,204.1,157.1,263.8,157.1,263.8z"/>
	<path d="M421.5,0L514,1l37.1,168.7c8.8,40.3,18.8,95.1,18.8,95.1h1.1c0,0,11.1-59.7,19.9-99L630.2,1h98.4V0H421.5z"/>
	<path d="M524.7,396.4l-41.5-189.7c-3.6-15.9-7.1-34.6-9.7-49.1l-49.1,189.2l-10.9,49.7h315.1V1L620.4,396.4H524.7z"/>
	<path d="M347.5,167c6.6,28.4,13.5,68.7,16.6,87.5c0-0.3,8.2-44.9,17-84.6c0.3-1.8,0.7-3.5,1.1-5.1L421.5,0H305.4L347.5,167z"/>
</g>
<polygon class="hero-img-mask" points="827.7,135 841,135 841,135 827.7,135 "/>
</svg>
