<?xml version="1.0" encoding="utf-8"?>
<!-- Generator: Adobe Illustrator 24.0.1, SVG Export Plug-In . SVG Version: 6.00 Build 0)  -->
<svg version="1.1" id="logo" xmlns="http://www.w3.org/2000/svg" xmlns:xlink="http://www.w3.org/1999/xlink" x="0px" y="0px"
	 viewBox="0 0 728.6 396.5" style="enable-background:new 0 0 728.6 396.5;" xml:space="preserve">
<style type="text/css">
	.logo{fill:white;}
</style>
<path class="logo" d="M630.4,0l-39.5,165.8c-8.8,39.3-19.9,99-19.9,99h-1.1c0,0-10-54.8-18.8-95.1L513.8,0l-92.3,0l-39.3,164.8
	c-0.4,1.6-0.8,3.3-1.1,5.1l0,0c-8.8,39.7-17,84.3-17,84.6c0,0,0,0,0,0c-3.1-18.8-10-59.1-16.6-87.5L305.4,0h-90.7l-37.1,169.8
	c-8.9,39.8-19.4,94-19.4,94h-1.1c0,0-9.4-59.7-18.3-97.9L99,0H0l108.7,396.5h95.6l41.8-190.7c3.3-15.7,6.6-34.1,9.1-48.5l55.3,214
	l5.5,25.3h0h1h96.3l10.9-49.7l49.1-189.2c2.6,14.5,6.1,33.2,9.7,49.1l41.5,189.7h95.7L728.6,0L630.4,0L630.4,0z"/>
</svg>
